<?xml version="1.0" standalone="no"?>
<!DOCTYPE svg PUBLIC "-//W3C//DTD SVG 20010904//EN"
 "http://www.w3.org/TR/2001/REC-SVG-20010904/DTD/svg10.dtd">
<svg version="1.0" xmlns="http://www.w3.org/2000/svg"
 width="181.000000pt" height="181.000000pt" viewBox="0 0 181.000000 181.000000"
 preserveAspectRatio="xMidYMid meet">
<metadata>
Created by potrace 1.11, written by Peter Selinger 2001-2013
</metadata>
<g transform="translate(0.000000,181.000000) scale(0.100000,-0.100000)"
fill="#000000" stroke="none">
<path d="M780 1779 c-53 -8 -92 -15 -97 -19 -2 -2 -11 -3 -20 -5 -10 -1 -26
-5 -35 -9 -9 -4 -22 -9 -30 -10 -22 -4 -130 -56 -160 -78 -15 -10 -28 -17 -28
-14 0 6 -32 -18 -66 -50 -12 -12 -29 -24 -39 -27 -9 -4 -13 -12 -9 -18 4 -8 3
-9 -4 -5 -6 3 -16 -3 -22 -14 -6 -11 -15 -18 -21 -15 -5 4 -9 0 -9 -7 0 -8 -8
-21 -17 -30 -30 -28 -48 -52 -45 -61 1 -4 -5 -10 -13 -13 -8 -4 -15 -12 -15
-20 0 -7 -8 -17 -17 -23 -10 -5 -17 -12 -16 -15 2 -3 -9 -32 -23 -63 -14 -32
-30 -67 -35 -78 -13 -30 -39 -134 -46 -185 -7 -59 -7 -207 2 -245 3 -16 8 -45
10 -63 2 -18 7 -38 12 -45 4 -6 9 -23 11 -37 2 -13 9 -28 15 -32 7 -4 9 -8 4
-8 -4 0 2 -18 13 -40 11 -22 17 -40 13 -40 -5 0 -3 -4 2 -8 21 -15 50 -56 35
-48 -13 7 -13 6 0 -6 8 -7 21 -25 29 -40 8 -16 18 -28 23 -28 5 0 6 -5 3 -10
-3 -6 1 -10 9 -10 8 0 18 -9 21 -20 3 -11 11 -20 16 -20 6 0 7 -5 4 -10 -6 -9
8 -14 28 -11 5 1 6 -2 3 -7 -5 -9 40 -53 84 -82 13 -8 30 -23 39 -32 8 -10 21
-18 28 -18 7 0 13 -5 13 -11 0 -5 4 -8 9 -4 5 3 16 -2 24 -10 9 -8 20 -15 26
-15 6 0 11 -5 11 -11 0 -5 4 -8 9 -5 4 3 28 -4 52 -16 24 -12 51 -23 59 -24
17 -3 39 -9 60 -16 64 -23 296 -30 390 -13 19 3 44 7 55 9 11 2 33 8 48 15 15
6 39 14 53 17 13 3 27 10 30 15 3 5 10 7 15 4 5 -4 9 -1 9 5 0 7 6 10 14 7 8
-3 17 1 20 9 3 8 9 13 13 12 10 -3 53 21 71 39 8 7 18 11 23 8 5 -4 9 -1 9 4
0 6 7 11 17 11 9 0 13 3 10 7 -7 6 31 38 45 38 3 0 10 4 15 9 5 5 2 6 -7 2 -8
-4 -6 0 4 8 11 9 24 16 29 16 4 0 6 4 3 9 -3 5 1 12 10 15 8 3 12 11 9 16 -4
6 -3 9 2 8 11 -4 53 34 53 48 0 7 7 15 16 18 8 3 13 10 10 15 -3 5 1 12 10 15
9 4 14 13 10 22 -3 8 -2 13 3 10 9 -6 26 22 23 37 -1 4 5 7 13 7 8 0 12 6 9
14 -3 7 2 21 11 29 9 9 15 18 15 19 -3 7 14 64 22 74 5 7 10 26 11 43 1 17 6
31 11 31 4 0 6 9 3 20 -3 11 -2 20 2 20 10 0 11 6 15 137 3 99 -2 148 -28 271
-3 12 -8 28 -13 35 -4 6 -9 21 -10 32 -2 10 -7 22 -11 25 -4 3 -9 14 -10 25
-2 11 -7 22 -12 25 -4 3 -10 15 -14 28 -4 12 -12 22 -17 22 -6 0 -7 5 -4 10 3
6 1 10 -5 10 -6 0 -9 4 -6 9 3 5 -1 11 -9 15 -8 3 -15 12 -15 21 0 8 -5 15
-11 15 -5 0 -7 5 -4 10 3 6 -1 10 -9 10 -9 0 -15 3 -14 8 6 17 -125 145 -181
176 -9 5 -20 15 -24 23 -5 7 -12 11 -18 8 -5 -4 -9 -1 -9 5 0 6 -4 9 -9 5 -5
-3 -13 0 -16 5 -7 12 -55 34 -67 32 -5 -1 -8 3 -8 9 0 5 -4 8 -9 5 -4 -3 -17
1 -27 9 -10 8 -28 15 -40 15 -11 0 -24 3 -28 7 -7 7 -21 11 -63 18 -11 1 -31
6 -43 10 -32 10 -225 13 -290 4z"/>
</g>
</svg>
